<svg width="64" height="64" viewBox="0 0 64 64" fill="none" xmlns="http://www.w3.org/2000/svg">
<path d="M29.3333 40C32.2788 40 34.6667 42.3878 34.6667 45.3333C34.6667 48.2788 32.2788 50.6667 29.3333 50.6667C26.3878 50.6667 24 48.2788 24 45.3333C24 42.3878 26.3878 40 29.3333 40ZM29.3333 40V21.3333M40 16H48M40 21.3333H48M40 26.6667H48M40 32H48M29.3333 8C32.2788 8 34.6667 10.3878 34.6667 13.3333L34.6696 36.0954C37.8563 37.9401 40 41.3864 40 45.3333C40 51.2244 35.2244 56 29.3333 56C23.4423 56 18.6667 51.2244 18.6667 45.3333C18.6667 41.3853 20.8116 37.9382 23.9997 36.0939L24 13.3333C24 10.3878 26.3878 8 29.3333 8Z" stroke="black" stroke-width="2" stroke-linejoin="round"/>
</svg>
