<svg width="14" height="15" viewBox="0 0 14 15" fill="none" xmlns="http://www.w3.org/2000/svg">
<path d="M4.5 9.31256C6.45262 7.92957 7.54758 7.94552 9.5 9.31256" stroke="#4147D5" stroke-width="1.5" stroke-linecap="round" stroke-linejoin="round"/>
<path d="M0.75 11.5312V3.4375C0.75 2.43648 1.56148 1.625 2.5625 1.625V1.625C3.56352 1.625 4.375 2.43648 4.375 3.4375V3.8125" stroke="#4147D5" stroke-width="1.5" stroke-linecap="round" stroke-linejoin="round"/>
<path d="M13.2505 11.5312V3.4375C13.2505 2.43648 12.439 1.625 11.438 1.625V1.625C10.437 1.625 9.62549 2.43648 9.62549 3.4375V3.8125" stroke="#4147D5" stroke-width="1.5" stroke-linecap="round" stroke-linejoin="round"/>
<path d="M0.891219 13.0378C0.921176 13.2771 1.11383 13.4652 1.35387 13.489C1.95678 13.5487 2.58654 13.625 3.23438 13.625C3.88221 13.625 4.51197 13.5487 5.11488 13.489C5.35492 13.4652 5.54757 13.2771 5.57753 13.0378C5.64222 12.521 5.71875 11.9821 5.71875 11.4283C5.71875 10.8744 5.64222 10.3356 5.57753 9.8188C5.54757 9.57945 5.35492 9.39136 5.11488 9.36757C4.51197 9.30782 3.88221 9.23157 3.23438 9.23157C2.58654 9.23157 1.95678 9.30782 1.35387 9.36757C1.11383 9.39136 0.921176 9.57945 0.891219 9.8188C0.826533 10.3356 0.75 10.8744 0.75 11.4283C0.75 11.9821 0.826533 12.521 0.891219 13.0378Z" fill="#D7E0FF"/>
<path d="M0.891219 13.0378C0.921176 13.2771 1.11383 13.4652 1.35387 13.489C1.95678 13.5487 2.58654 13.625 3.23438 13.625C3.88221 13.625 4.51197 13.5487 5.11488 13.489C5.35492 13.4652 5.54757 13.2771 5.57753 13.0378C5.64222 12.521 5.71875 11.9821 5.71875 11.4283C5.71875 10.8744 5.64222 10.3356 5.57753 9.8188C5.54757 9.57945 5.35492 9.39136 5.11488 9.36757C4.51197 9.30782 3.88221 9.23157 3.23438 9.23157C2.58654 9.23157 1.95678 9.30782 1.35387 9.36757C1.11383 9.39136 0.921176 9.57945 0.891219 9.8188C0.826533 10.3356 0.75 10.8744 0.75 11.4283C0.75 11.9821 0.826533 12.521 0.891219 13.0378Z" stroke="#4147D5" stroke-width="1.5"/>
<path d="M8.42296 13.0378C8.45291 13.2771 8.64557 13.4652 8.88561 13.489C9.48852 13.5487 10.1183 13.625 10.7661 13.625C11.414 13.625 12.0437 13.5487 12.6466 13.489C12.8867 13.4652 13.0793 13.2771 13.1093 13.0378C13.174 12.521 13.2505 11.9821 13.2505 11.4283C13.2505 10.8744 13.174 10.3356 13.1093 9.8188C13.0793 9.57945 12.8867 9.39136 12.6466 9.36757C12.0437 9.30782 11.414 9.23157 10.7661 9.23157C10.1183 9.23157 9.48852 9.30782 8.88561 9.36757C8.64557 9.39136 8.45291 9.57945 8.42296 9.8188C8.35827 10.3356 8.28174 10.8744 8.28174 11.4283C8.28174 11.9821 8.35827 12.521 8.42296 13.0378Z" fill="#D7E0FF"/>
<path d="M8.42296 13.0378C8.45291 13.2771 8.64557 13.4652 8.88561 13.489C9.48852 13.5487 10.1183 13.625 10.7661 13.625C11.414 13.625 12.0437 13.5487 12.6466 13.489C12.8867 13.4652 13.0793 13.2771 13.1093 13.0378C13.174 12.521 13.2505 11.9821 13.2505 11.4283C13.2505 10.8744 13.174 10.3356 13.1093 9.8188C13.0793 9.57945 12.8867 9.39136 12.6466 9.36757C12.0437 9.30782 11.414 9.23157 10.7661 9.23157C10.1183 9.23157 9.48852 9.30782 8.88561 9.36757C8.64557 9.39136 8.45291 9.57945 8.42296 9.8188C8.35827 10.3356 8.28174 10.8744 8.28174 11.4283C8.28174 11.9821 8.35827 12.521 8.42296 13.0378Z" stroke="#4147D5" stroke-width="1.5"/>
</svg>
